<?xml version="1.0" encoding="UTF-8" standalone="no"?>
<svg
   xmlns:dc="http://purl.org/dc/elements/1.1/"
   xmlns:cc="http://creativecommons.org/ns#"
   xmlns:rdf="http://www.w3.org/1999/02/22-rdf-syntax-ns#"
   xmlns:svg="http://www.w3.org/2000/svg"
   xmlns="http://www.w3.org/2000/svg"
   xmlns:sodipodi="http://sodipodi.sourceforge.net/DTD/sodipodi-0.dtd"
   xmlns:inkscape="http://www.inkscape.org/namespaces/inkscape"
   version="1.1"
   id="Layer_1"
   x="0px"
   y="0px"
   viewBox="0 0 2000 1876.4315"
   xml:space="preserve"
   sodipodi:docname="Alfa Romeo F1 2019 Logo.svg"
   inkscape:version="1.0 (4035a4fb49, 2020-05-01)"
   width="2000"
   height="1876.4315"><metadata
   id="metadata47"><rdf:RDF><cc:Work
       rdf:about=""><dc:format>image/svg+xml</dc:format><dc:type
         rdf:resource="http://purl.org/dc/dcmitype/StillImage" /><dc:title></dc:title></cc:Work></rdf:RDF></metadata><defs
   id="defs45">
	
	
	

		
		
		
		
		
		
		
		
		
		
		
		
	
		
		
	
		
	</defs><sodipodi:namedview
   inkscape:document-rotation="0"
   pagecolor="#ffffff"
   bordercolor="#666666"
   borderopacity="1"
   objecttolerance="10"
   gridtolerance="10"
   guidetolerance="10"
   inkscape:pageopacity="0"
   inkscape:pageshadow="2"
   inkscape:window-width="1920"
   inkscape:window-height="986"
   id="namedview43"
   showgrid="false"
   inkscape:zoom="0.072165978"
   inkscape:cx="-892.96233"
   inkscape:cy="1231.2717"
   inkscape:window-x="-11"
   inkscape:window-y="-11"
   inkscape:window-maximized="1"
   inkscape:current-layer="Layer_1"
   fit-margin-top="0"
   fit-margin-left="0"
   fit-margin-right="0"
   fit-margin-bottom="0" />
<style
   type="text/css"
   id="style2">
	.st0{fill-rule:evenodd;clip-rule:evenodd;fill:#9C2135;}
	.st1{fill:#FFFFFF;}
	.st2{fill:#231F20;}
	.st3{fill:#135740;}
	.st4{fill:#9C2135;}
	.st5{fill-rule:evenodd;clip-rule:evenodd;fill:#231F20;}
	.st6{fill-rule:evenodd;clip-rule:evenodd;fill:#D62427;}
</style>

<g
   transform="matrix(1.7436586,0,0,1.7436586,-1975.0245,1156.8764)"
   id="g37"><path
     style="stroke-width:8.40639"
     id="path30"
     d="M 2000,412.6697 H 1412.3933 V 249.24947 H 2000 Z M 1502.3417,273.20768 c 31.4398,0 56.9953,26.98452 56.9953,58.42442 0,31.52396 -25.4714,56.99532 -56.9953,56.99532 -32.9531,0 -58.4245,-25.47136 -58.4245,-56.99532 0,-31.4399 25.4714,-58.42442 58.4245,-58.42442 z m 0,35.97935 c 12.0211,0 22.445,8.99484 22.445,22.44507 0,12.02113 -10.508,22.44506 -22.445,22.44506 -13.4503,0 -23.9583,-10.50799 -23.9583,-22.44506 0,-13.45023 10.508,-22.44507 23.9583,-22.44507 z m 164.9333,76.49816 -28.4976,-44.97419 c 12.0211,-1.51315 21.0159,-12.02114 21.0159,-26.98451 0,-23.95822 -14.9633,-37.49251 -43.461,-37.49251 h -45.0582 v 109.45121 h 34.4662 v -35.97935 l 17.9896,35.97935 z m -61.5347,-59.93757 V 303.2185 h 5.9685 c 8.9948,0 13.5343,4.53945 13.5343,12.02114 0,7.48168 -4.5395,12.02113 -13.5343,12.02113 h -5.9685 z m 238.4052,59.93757 v -30.01082 h -46.4874 v -13.53429 h 22.4451 v -25.47136 h -22.4451 v -13.53429 h 41.9479 v -26.98451 h -76.4141 v 109.4512 h 80.9536 z m 115.4197,0 V 276.23398 h -34.4662 v 35.97935 c 0,1.51316 0,1.51316 0,3.02631 0,4.53945 1.5132,10.50798 1.5132,17.98967 l -37.4925,-56.99533 h -32.9531 v 109.45121 h 34.4662 v -40.51881 c 0,-4.45538 0,-10.50798 -1.5131,-16.47652 l 37.4925,56.99533 z m -208.3944,0 v -30.01082 h -34.4662 v -79.44039 h -39.0056 v 109.45121 z"
     class="st6" /><path
     style="stroke-width:8.40639"
     id="path32"
     d="m 1856.0826,222.93747 c 18.7462,-18.74625 18.7462,-49.51364 0,-68.25989 L 1781.6019,80.196963 C 1766.3864,64.981397 1746.127,56.322815 1724.6066,56.322815 h -7.0614 c -26.6482,0 -48.2526,21.604423 -48.2526,48.252685 0,10.42392 3.1103,18.49405 8.4064,27.2367 -2.0176,-14.2068 9.1629,-27.32077 23.5378,-27.32077 -0.084,0 14.9634,0 23.0336,0 8.4063,0 16.7287,3.44662 22.6972,9.33109 l 109.115,109.11495 M 1811.5287,91.461526 c 12.8618,0 23.2857,-10.423924 23.2857,-23.285701 0,-4.203195 -1.0928,-8.322326 -3.2785,-11.937074 h -40.0144 c -2.1857,3.614748 -3.2785,7.733879 -3.2785,11.937074 0,12.861777 10.4239,23.285701 23.2857,23.285701 z m 100.7926,-61.366649 -4.2032,-4.119131 C 1891.3894,9.4151571 1869.0284,0 1845.4905,0 l -63.8045,0.0840639 c -27.9092,0 -51.6993,20.5956561 -55.6503,48.1686161 h 119.5389 c 10.592,0 20.7637,4.203195 28.2454,11.684883 l 39.426,39.42597 c 16.6447,16.644657 47.4961,18.914377 67.4193,-0.840639 z"
     class="st6" /></g><g
   transform="matrix(1.8640458,0,0,1.8640458,11.476451,-0.00250655)"
   id="g50"><path
     style="stroke-width:8.40639"
     id="path18"
     d="m 1057.3073,256.14271 c 1.1769,0 1.5973,1.00877 0.9248,2.18566 l -5.2961,9.24703 c -0.6725,1.1769 -2.1856,2.18566 -3.4466,2.18566 H 3.3141813 c -1.1768946,0 -1.5972142,-1.00876 -0.9247029,-2.18566 l 5.2960258,-9.24703 c 0.6725113,-1.17689 2.1856613,-2.18566 3.4466198,-2.18566 H 1057.3073 m 0,-2.01753 H 11.04806 c -1.9334695,0 -4.1191309,1.34502 -5.1278977,3.19443 l -5.29602593,9.24703 c -0.75657511,1.26095 -0.84063901,2.60598 -0.1681278,3.69881 0.58844733,1.00876 1.59721423,1.51315 2.85817273,1.51315 H 1049.5735 c 1.9334,0 4.1191,-1.34502 5.1279,-3.19443 l 5.296,-9.24703 c 0.7566,-1.26096 0.8406,-2.60598 0.1681,-3.69881 -0.5044,-0.9247 -1.5972,-1.51315 -2.8582,-1.51315 z"
     class="st2" /><path
     style="stroke-width:8.40639"
     id="path4"
     d="m 276.26968,392.83062 c 0,6.55698 0,12.69365 0,19.0825 -6.47292,0 -12.52552,0 -18.99844,0 -0.0841,-1.59721 -0.2522,-3.0263 -0.2522,-4.45538 -0.0841,-16.14027 -0.16812,-32.36461 -0.33625,-48.58894 -0.0841,-5.63228 0.9247,-11.34863 -3.44662,-16.72872 1.8494,-0.0841 3.11036,-0.25219 4.28726,-0.25219 19.16657,0 38.33314,0.16813 57.41564,-0.0841 13.11397,-0.16813 22.78132,9.24703 24.88292,18.74625 1.26096,5.54822 1.09283,11.01237 -0.67251,16.39246 -2.18566,6.47292 -6.64105,10.84424 -13.2821,13.78648 4.87571,7.2295 10.42392,13.53429 15.63589,20.67972 -0.92471,0.25219 -1.51315,0.50438 -2.18566,0.50438 -5.29603,0 -10.59206,-0.0841 -15.97215,0.0841 -2.01753,0 -3.11036,-0.84064 -4.20319,-2.35379 -3.36256,-4.87571 -6.89324,-9.66735 -10.17173,-14.62712 -1.34503,-1.93347 -2.85818,-2.69005 -5.21197,-2.69005 -7.98607,0.16813 -16.0562,0.0841 -24.12634,0.0841 -0.84063,0.25219 -1.76534,0.33625 -3.36255,0.42032 m 0.33625,-14.87931 c 7.48169,0 14.459,0 21.52036,0 4.79165,0 9.66735,0.0841 14.45899,-0.0841 5.63229,-0.16812 8.82671,-3.53068 9.24703,-9.0789 0.58845,-7.64981 -3.11036,-11.68488 -10.76018,-11.68488 -10.50798,-0.0841 -21.01597,0 -31.52396,0 -0.9247,0 -1.93347,0.16813 -3.0263,0.25219 0.0841,6.89324 0.0841,13.45023 0.0841,20.59566 z"
     class="st0" /><path
     style="stroke-width:8.40639"
     id="path6"
     d="m 708.69439,412.16532 c -5.80041,0 -11.34862,0.0841 -16.81278,-0.0841 -1.09283,-0.0841 -2.26972,-1.34502 -3.19442,-2.26972 -10.17174,-10.2558 -20.25941,-20.59566 -30.34707,-30.93552 -3.53069,-3.61475 -7.06137,-7.2295 -10.67612,-10.84424 -0.84064,-0.84064 -1.76534,-1.68128 -3.27849,-3.11037 -0.25219,16.05621 0.0841,31.35584 -0.16813,46.99172 -6.30479,0 -12.27333,0 -18.74625,0 -0.0841,-1.51315 -0.16813,-2.94223 -0.16813,-4.28726 0,-16.30839 0,-32.61679 0,-48.92519 0,-1.59721 0.0841,-3.19443 0,-4.79164 -0.16813,-4.20319 0.67251,-8.82671 -4.28726,-11.60082 0.2522,-0.16813 0.42032,-0.33625 0.67251,-0.50438 0.58845,-0.0841 1.09284,-0.25219 1.68128,-0.25219 6.13667,0 12.3574,0.0841 18.49406,-0.0841 1.84941,-0.0841 2.94224,0.92471 4.11913,2.1016 7.98607,8.1542 15.88808,16.22433 23.87415,24.29447 6.0526,6.13666 12.1052,12.35739 18.1578,18.49406 0.84064,0.84064 1.76535,1.59721 3.0263,2.77411 0.75658,-4.37133 0.33626,-8.23827 0.33626,-12.10521 0.0841,-3.951 0,-7.902 0,-11.85301 0,-3.78287 0,-7.64981 0,-11.51675 0,-3.951 0,-7.81794 0,-11.93708 5.96854,0 11.60082,0 17.40123,0 -0.0841,23.45383 -0.0841,46.65547 -0.0841,70.44556"
     class="st0" /><path
     style="stroke-width:8.40639"
     id="path8"
     d="m 807.30135,374.92501 c 0,8.74264 0.0841,16.89684 0,25.05104 0,1.42909 -0.42032,2.94224 -0.84064,4.37132 -1.00876,3.44662 -3.19443,5.88448 -6.72511,6.72511 -3.0263,0.67252 -6.0526,1.09284 -9.16296,1.1769 -14.54306,0.0841 -29.17018,0.0841 -43.71323,0 -3.0263,0 -6.13667,-0.50438 -9.16297,-1.1769 -3.36256,-0.75657 -5.71634,-3.0263 -6.47292,-6.38885 -0.67251,-2.85817 -1.26096,-5.80041 -1.26096,-8.74265 -0.16813,-12.60958 -0.0841,-25.21917 0,-37.82875 0,-2.69005 0.42032,-5.38009 1.00877,-8.07014 0.84064,-4.11913 3.53068,-6.72511 7.73388,-7.56575 2.01753,-0.42032 4.11913,-0.84064 6.22073,-0.84064 15.97214,-0.0841 31.86022,0 47.83236,0 1.00876,0 2.01753,0 2.94223,0.16813 7.73388,0.9247 11.09644,4.45539 11.76895,12.18926 0.16813,1.59722 0,3.19443 0,5.29603 -5.88447,1.26096 -11.76895,2.52192 -18.07374,3.86694 -0.16813,-2.52192 -0.25219,-4.70758 -0.33625,-7.2295 -0.92471,-0.0841 -1.93347,-0.33625 -2.85818,-0.33625 -10.84424,0 -21.77255,0 -32.61679,0 -4.37132,0 -5.46416,1.09283 -5.46416,5.46415 0,9.41516 0,18.74625 0,28.16141 0,1.09283 0,2.26973 0.2522,3.27849 0.67251,2.85817 2.60598,4.70758 5.38009,4.70758 11.60081,0.0841 23.20163,0 35.13871,0 0.50438,-3.69881 0.16813,-7.2295 0.25219,-11.1805 -2.94224,-0.16813 -5.71635,-0.50438 -8.49046,-0.33625 -3.951,0.33625 -6.22072,-1.26096 -7.31355,-4.95977 -0.58845,-1.93347 -1.59722,-3.78288 -2.52192,-5.88448 12.27333,0.0841 24.2104,0.0841 36.48373,0.0841"
     class="st0" /><path
     style="stroke-width:8.40639"
     id="path10"
     d="m 553.42837,364.50108 c -6.38886,1.1769 -12.27333,2.26973 -18.66219,3.36256 0,-4.11913 0,-7.73388 0,-11.68488 -1.42909,-0.0841 -2.43785,-0.33626 -3.53068,-0.33626 -10.59206,0 -21.26817,0 -31.86022,0 -0.58845,0 -1.26096,0 -1.84941,0.0841 -2.69004,0.2522 -3.86694,1.34503 -3.86694,4.03507 -0.0841,10.50799 -0.0841,21.01598 0.0841,31.52397 0.0841,3.951 2.43786,6.22072 6.3048,6.30479 11.09643,0.0841 22.19287,0 33.37337,0 0.25219,0 0.42032,-0.16813 1.17689,-0.42032 0,-4.2032 0,-8.57452 0,-13.36616 6.38886,1.34502 12.27333,2.60598 18.49406,3.951 0,5.63228 0.58845,11.1805 -0.9247,16.56059 -1.00877,3.61475 -3.2785,6.13667 -6.97731,6.9773 -2.77411,0.58845 -5.54821,1.09283 -8.40639,1.1769 -14.96337,0.0841 -29.84268,0.16813 -44.80606,0 -3.0263,0 -6.13666,-0.67251 -9.0789,-1.34502 -3.11036,-0.75658 -5.21196,-2.94224 -5.96854,-5.96854 -0.75657,-2.94224 -1.26095,-6.0526 -1.34502,-9.0789 -0.16813,-12.60959 -0.16813,-25.21917 0,-37.74469 0,-2.94224 0.58845,-5.88448 1.26096,-8.74265 0.75658,-3.36256 3.11036,-5.63228 6.47292,-6.47292 2.85817,-0.67251 5.80041,-1.26096 8.74265,-1.26096 14.96337,-0.16813 29.84268,-0.0841 44.80606,0 2.35379,0 4.70758,0.33626 6.9773,0.75658 4.70758,0.9247 7.90201,3.61474 8.57452,8.49045 0.58845,4.11913 0.67251,8.49045 1.00877,13.19803"
     class="st0" /><path
     style="stroke-width:8.40639"
     id="path12"
     d="m 360.83796,412.24938 c 1.00877,-2.01753 1.59722,-3.19443 2.18567,-4.37132 9.33109,-17.2331 18.74625,-34.4662 28.1614,-51.6993 0.50439,-1.00877 1.09283,-1.93347 1.59722,-2.94224 1.8494,-3.27849 3.27849,-6.64105 1.51315,-11.01237 8.82671,-0.25219 17.2331,-0.25219 25.80762,0 12.77771,23.11757 25.47136,46.06702 38.33314,69.43678 -1.00877,0.25219 -1.68128,0.50439 -2.35379,0.50439 -5.04384,0 -10.08767,0 -15.21557,0.0841 -1.68128,0 -2.69005,-0.58845 -3.53068,-2.1016 -1.93347,-3.86694 -4.03507,-7.56575 -6.05261,-11.34863 -15.04743,0 -29.84268,0 -44.89012,0 -1.84941,3.61475 -3.86694,7.2295 -5.54822,10.84425 -0.9247,2.01753 -2.18566,2.60598 -4.28726,2.60598 -4.95977,-0.0841 -10.0036,0 -15.71995,0 m 62.96387,-28.07734 c -4.87571,-9.66735 -9.41516,-18.83032 -14.62712,-28.4136 -5.1279,9.83547 -9.91954,18.91437 -14.87931,28.4136 10.0036,0 19.3347,0 29.50643,0 z"
     class="st0" /><path
     style="stroke-width:8.40639"
     id="path14"
     d="m 598.65475,411.99719 c -6.22073,0 -12.27333,0 -18.74626,0 0,-1.59722 0,-3.0263 0,-4.45539 -0.0841,-16.39246 -0.16812,-32.78492 -0.25219,-49.26145 -0.0841,-5.38009 0.75658,-10.9283 -3.19443,-15.55182 3.11037,-0.84064 18.24187,-1.00877 22.27694,-0.25219 -0.0841,22.94945 -0.0841,45.98295 -0.0841,69.52085"
     class="st0" /><path
     style="stroke-width:8.40639"
     id="path20"
     d="m 349.06902,267.5754 c -0.67251,1.1769 -2.18566,2.18566 -3.44662,2.18566 H 3.3141813 c -1.1768946,0 -1.5972142,-1.00876 -0.9247029,-2.18566 l 5.2960258,-9.24703 c 0.6725113,-1.17689 2.1856613,-2.18566 3.4466198,-2.18566 H 353.44034 c 1.1769,0 1.59722,1.00877 0.9247,2.18566 l -5.29602,9.24703"
     class="st3" /><path
     style="stroke-width:8.40639"
     id="path22"
     d="m 1052.936,267.5754 c -0.6725,1.1769 -2.1856,2.18566 -3.4466,2.18566 H 707.18124 c -1.17689,0 -1.59721,-1.00876 -0.9247,-2.18566 l 5.29603,-9.24703 c 0.67251,-1.17689 2.18566,-2.18566 3.44662,-2.18566 h 342.30811 c 1.1769,0 1.5973,1.00877 0.9248,2.18566 l -5.2961,9.24703"
     class="st4" /><path
     style="stroke-width:8.40639"
     id="path24"
     d="m 695.91668,96.50536 c 6.47292,-1.849405 12.60959,-3.698811 18.74625,-5.296025 8.40639,-2.101598 16.89685,-4.035068 25.47136,-5.80041 2.26973,-0.504383 4.62352,-0.504383 6.97731,-0.252191 4.53945,0.420319 6.47292,2.521917 6.80917,7.145431 0.0841,0.672511 0.16813,1.429087 0.2522,2.605981 2.35378,-0.588447 4.45538,-1.008767 6.55698,-1.597214 8.23826,-2.353789 16.47652,-4.875706 24.71479,-7.145432 3.0263,-0.840639 6.30479,-1.176894 9.41515,-1.260958 5.88448,-0.168128 7.98608,2.185661 7.98608,7.986071 0,0.588447 0,1.176894 0,2.185661 2.01753,-0.504383 3.69881,-1.008767 5.46415,-1.51315 10.17173,-2.690045 20.34346,-5.464154 30.59926,-8.154199 2.77411,-0.756575 5.63228,-0.756575 8.32233,0.42032 2.85817,1.260958 4.37132,3.44662 3.69881,6.47292 -0.58845,2.605981 -1.51315,5.296026 -3.0263,7.397625 -3.2785,4.53945 -7.06137,8.82671 -10.67612,13.11397 -3.11036,3.78287 -6.38886,7.48168 -9.41516,11.34862 -1.00876,1.34503 -1.76534,2.94224 -2.35379,4.53946 -0.67251,2.01753 -0.0841,3.11036 2.1016,3.36255 2.26973,0.25219 4.70758,0.33626 6.97731,0.0841 6.22073,-0.67252 12.27333,-2.35379 17.98967,-4.95978 1.42909,-0.67251 2.35379,-1.42908 2.85817,-3.0263 5.96854,-17.48529 18.41,-28.917978 34.4662,-36.988113 9.07891,-4.539451 18.66219,-7.649815 29.00205,-7.313559 2.43785,0.08406 4.87571,0.588447 7.14543,1.429086 4.03507,1.51315 5.38009,4.707579 4.37133,8.910774 -1.1769,4.95977 -4.03507,8.910773 -7.56576,12.441462 -5.29602,5.21196 -11.43269,9.33109 -18.1578,12.52552 -7.31356,3.44662 -14.87931,6.30479 -22.361,9.49922 -0.42032,0.16813 -0.9247,0.33625 -1.51315,0.58845 0.75658,2.43785 2.69005,3.86693 4.53945,5.12789 3.78288,2.52192 7.98607,3.78288 12.44146,4.11913 8.74265,0.75658 17.06497,-1.17689 25.21917,-4.28725 0.42032,-0.16813 0.92471,-0.42032 1.34502,-0.58845 4.87571,-1.42909 7.90201,-4.03507 9.66735,-9.24703 2.69005,-8.07014 8.65859,-14.2068 15.04744,-19.67095 11.43269,-9.751417 24.29447,-16.560593 39.08972,-19.670958 5.21196,-1.09283 10.42392,-1.51315 15.71989,-0.504383 8.0701,1.597214 13.198,6.052601 14.7953,14.374927 0.084,0.504384 0.2521,0.924703 0.4203,1.345023 10.3398,-1.092831 20.0912,-10.171733 21.3522,-20.175337 3.1944,-0.672511 6.557,-0.336256 10.0877,-0.168128 0.084,2.942237 -1.0929,5.127898 -2.1857,7.229496 -5.212,10.003604 -13.5343,16.47652 -23.7901,20.34346 -5.0438,1.84941 -8.5745,4.37133 -11.2645,9.24703 -4.7917,8.57452 -12.5256,14.71119 -20.59564,20.2594 -8.82671,5.96854 -18.24187,10.59206 -28.66579,12.94585 -5.46416,1.17689 -10.92831,1.68127 -16.47653,0.58844 -7.31356,-1.42908 -12.52552,-5.38009 -15.55182,-12.18926 -0.16813,-0.33626 -0.33626,-0.58845 -0.67251,-1.26096 -1.42909,0.67251 -2.85817,1.26096 -4.28726,1.93347 -10.50799,4.79164 -21.35223,8.74264 -32.70086,10.92831 -7.14543,1.34502 -14.37493,1.93346 -21.60442,0.58844 -7.2295,-1.42908 -13.02991,-4.95977 -16.81278,-11.43269 -0.25219,-0.42032 -0.58845,-0.75657 -0.92471,-1.26096 -5.71634,2.1016 -11.34862,4.2032 -16.9809,6.13667 -9.75142,3.36255 -19.58689,6.47292 -29.92675,7.39762 -3.2785,0.25219 -6.64105,0.16813 -9.83548,-0.50438 -6.30479,-1.34502 -8.91077,-7.81794 -5.29603,-13.19803 2.69005,-4.11914 5.88448,-7.90201 8.91078,-11.68489 2.77411,-3.44662 5.80041,-6.72511 8.57452,-10.17173 1.26095,-1.59721 2.52191,-3.36256 3.36255,-5.21196 1.09283,-2.35379 0.25219,-3.69881 -2.35379,-4.2032 -0.9247,-0.16812 -2.01753,-0.16812 -2.94223,0 -3.95101,0.92471 -7.90201,1.68128 -11.76895,2.94224 -1.51315,0.50438 -2.94224,1.76534 -3.951,3.0263 -9.58329,11.34863 -19.16657,22.78132 -28.58173,34.21401 -2.85817,3.53068 -6.30479,5.21196 -10.84424,4.95977 -4.79165,-0.25219 -9.58329,0 -14.37493,-0.0841 -1.42909,0 -3.0263,0.16812 -3.86694,-1.93347 0.75657,-1.09284 1.42909,-2.52192 2.43785,-3.69882 7.81795,-9.33109 15.63589,-18.66218 23.45383,-27.99328 1.59722,-1.93347 3.27849,-4.03506 4.45539,-6.30479 2.01753,-3.69881 0.67251,-5.71634 -3.44662,-5.63228 -5.63228,0.0841 -10.76018,2.18566 -15.88808,4.28726 -1.09283,0.50438 -1.93347,1.84941 -2.77411,2.85817 -9.33109,11.09644 -18.66218,22.19287 -27.82515,33.37337 -3.0263,3.61475 -6.47292,5.29603 -11.1805,5.04384 -4.62351,-0.2522 -9.33109,-0.0841 -14.03867,-0.0841 -1.42909,0 -3.0263,0.16813 -3.951,-2.1016 1.68127,-2.18566 3.53068,-4.62351 5.46415,-6.89324 7.39762,-8.91077 14.87931,-17.65342 22.19287,-26.56419 0.9247,-1.09283 1.76534,-2.35379 2.35379,-3.69881 1.26096,-3.11037 0,-5.21196 -3.27849,-5.38009 -2.43786,-0.16813 -4.87571,0 -7.31356,0.33625 -1.84941,0.16813 -3.61475,0.84064 -5.38009,1.1769 -4.2032,0.84064 -7.31356,2.60598 -9.41516,6.9773 -3.11036,6.64105 -8.57452,11.60082 -14.2068,16.22434 -10.67611,8.74264 -22.52913,15.29963 -36.06341,18.40999 -5.29603,1.26096 -10.67612,1.59722 -16.05621,0.67251 -6.38886,-1.17689 -11.34863,-4.37132 -14.71118,-10.0036 -0.33626,-0.50439 -0.67251,-1.00877 -1.1769,-1.68128 -3.36255,1.26096 -6.64104,2.60598 -10.0036,3.69881 -11.76895,4.03507 -23.70602,7.39763 -36.14748,7.98607 -3.53068,0.16813 -7.14543,-0.0841 -10.59205,-0.9247 -5.80041,-1.42909 -7.73388,-6.64105 -4.62352,-11.76895 1.26096,-2.10159 2.94224,-3.951 4.53946,-5.80041 5.54821,-6.38885 11.18049,-12.77771 16.64465,-19.25063 2.18566,-2.60598 4.20319,-5.46415 6.13666,-8.32233 1.00877,-1.513146 1.59722,-3.194424 2.69005,-5.46415 -1.84941,0.168128 -3.0263,0.252192 -4.11913,0.42032 -9.24703,1.681278 -16.72872,-1.092831 -22.19287,-8.82671 -0.16813,-0.168128 -0.33626,-0.336256 -0.75658,-0.672511 -0.58845,0.672511 -1.26096,1.260958 -1.76534,2.017533 -9.0789,12.357398 -18.49406,24.546658 -29.59049,35.222778 -8.91078,8.57452 -18.83032,15.80401 -30.59927,20.00721 -14.62711,5.21196 -29.17017,4.45538 -43.71322,-0.2522 -3.02631,-1.00876 -6.05261,-2.18566 -8.91078,-3.36255 -4.11913,-1.68128 -4.28726,-2.52192 -0.9247,-5.38009 5.1279,-4.45539 10.17173,-8.91077 15.21557,-13.36616 1.68127,-1.42909 3.19442,-3.0263 4.79164,-4.53945 2.85817,-2.77411 2.85817,-2.77411 6.22073,-0.92471 5.80041,3.2785 12.02113,4.95977 18.74625,4.2032 6.0526,-0.67251 11.68488,-2.85817 16.89684,-5.88447 7.73388,-4.45539 14.45899,-10.08767 20.84785,-16.308401 11.76895,-11.43269 22.02474,-24.12634 32.53273,-36.651861 8.57452,-10.255796 17.31716,-20.427529 26.22794,-30.431133 3.69881,-4.119131 7.98607,-7.649815 11.93707,-11.432691 0.67251,-0.672511 1.42909,-1.345022 2.69005,-2.521917 -5.04384,-1.008767 -9.41516,-2.185661 -13.87055,-2.774109 -17.56935,-2.353789 -34.80245,-0.840639 -51.53117,5.127898 -10.33986,3.698812 -20.00721,8.82671 -28.24547,16.224334 -3.69881,3.362556 -6.89324,7.061367 -9.41516,11.348627 -9.91954,17.064972 3.69881,31.523963 17.65342,32.11241 2.18566,0.08406 4.28726,0.168128 7.06137,0.252192 -0.67251,1.176895 -0.84064,2.017534 -1.42909,2.521917 -5.1279,4.707579 -10.33986,9.499221 -15.55182,14.122736 -0.67251,0.588447 -2.01753,0.924703 -3.0263,0.840639 -7.56575,-0.924703 -14.71118,-3.110365 -20.67972,-7.902007 -8.40639,-6.809176 -10.33986,-15.71995 -7.73388,-25.891682 2.52192,-9.919541 8.1542,-18.073739 15.04744,-25.387299 9.83548,-10.592051 21.60442,-18.494058 34.63433,-24.546659 21.43629,-9.9195408 43.96542,-13.7024164 67.41925,-11.93707449 7.81794,0.58844729 15.55182,2.26972539 23.2857,3.69881169 1.68128,0.3362556 3.11036,0.4203195 4.45539,-0.7565751 2.60598,-2.1856615 5.54821,-2.8581727 8.91077,-2.605981 2.77411,0.2521917 5.54822,0.084064 8.32233,0.084064 0.0841,0.2521917 0.25219,0.5043834 0.33625,0.8406391 -3.11036,2.1856614 -6.22073,4.4553868 -9.75141,6.89324 1.42908,0.840639 2.43785,1.5131498 3.53068,2.1015978 7.31356,4.119131 13.19803,9.835476 17.2331,17.2331 7.48169,13.702416 5.88448,29.254238 -4.28726,41.191312 -7.39762,8.658582 -16.89684,14.122736 -27.32077,18.157803 -4.20319,1.597214 -8.49045,3.026301 -13.0299,4.539451 2.1016,6.304793 0.0841,11.853008 -2.52192,17.401228 -1.76534,3.61475 -3.69881,7.2295 -5.46415,10.84424 -0.84064,1.68128 -1.59722,3.36256 -2.18566,5.04384 -1.42909,4.45538 0.25219,6.89324 4.95977,7.14543 1.59721,0.0841 3.27849,0.16813 4.79164,-0.25219 4.70758,-1.34503 9.33109,-2.94224 13.95461,-4.45539 1.34502,-0.42032 2.18566,-1.26096 2.60598,-2.77411 2.43785,-8.49045 7.56575,-15.38369 13.87054,-21.35223 11.93708,-11.264563 25.89169,-18.914378 42.03195,-22.360998 5.04384,-1.09283 10.17174,-1.51315 15.3837,-0.504383 8.07013,1.51315 13.36616,5.800409 14.96337,14.122736 0,0.420319 0.33626,1.008766 0.58845,1.849405 M 601.00853,21.352231 c -16.0562,15.635886 -28.83391,33.457434 -41.52756,51.783364 10.76018,-2.521917 19.92314,-0.08406 27.48889,7.565752 7.06137,-3.278493 13.11397,-7.481688 18.41,-12.609586 4.11913,-3.951003 7.56575,-8.40639 9.75141,-13.702416 3.53068,-8.490454 2.35379,-16.308397 -3.27849,-23.537893 -2.94224,-3.782875 -6.47292,-6.725112 -10.84425,-9.499221 z m 408.29837,75.825641 c 0.084,-5.127898 -2.3538,-7.817943 -7.1455,-8.490455 -3.44654,-0.504383 -6.89316,-0.252191 -10.17165,1.008767 -13.11397,5.127898 -23.03351,13.870546 -29.84269,26.059806 -1.09283,2.01754 -1.8494,4.28726 -2.26972,6.55699 -0.84064,4.8757 1.76534,8.32232 6.55698,9.33109 3.86694,0.84064 7.56575,-0.0841 11.1805,-1.34502 5.80041,-2.01753 10.67611,-5.38009 15.55182,-8.99484 2.26973,-1.76534 3.61475,-3.69881 3.951,-6.64105 0.67252,-5.71634 3.78286,-9.83547 8.74256,-12.35739 2.7741,-1.34502 3.6989,-3.110365 3.4467,-5.127898 z m -333.73368,-8.82671 c -1.26096,0.08406 -2.52192,0.168128 -3.69882,0.336255 -1.17689,0.252192 -2.35378,0.588448 -3.53068,1.008767 -13.0299,5.127898 -22.94944,13.954606 -29.75862,26.227936 -1.09283,2.01754 -1.76534,4.37132 -2.1016,6.55699 -0.75657,4.79164 1.68128,7.98607 6.38886,9.0789 3.11036,0.75657 6.13666,0.16813 9.0789,-0.58845 6.22073,-1.68128 11.51675,-5.21196 16.72872,-8.91077 2.85817,-2.1016 4.79164,-4.45539 4.95977,-8.07014 0,-0.67251 0.33625,-1.42908 0.58844,-2.1016 1.42909,-4.62351 4.70758,-7.64981 8.74265,-10.0036 1.00877,-0.58845 2.1016,-1.42909 2.43785,-2.437853 1.84941,-5.632282 -1.00876,-10.003604 -6.9773,-10.844243 -0.9247,-0.168128 -1.93347,-0.168128 -2.85817,-0.252192 z m 204.77966,29.506428 c 4.11913,-1.59721 7.81795,-2.77411 11.34863,-4.28726 7.81794,-3.44662 15.1315,-7.64981 20.42753,-14.458989 1.93347,-2.605981 3.44662,-5.632281 4.62351,-8.658582 0.92471,-2.185661 -0.25219,-3.278492 -2.60598,-2.858172 -9.41515,1.597214 -17.90561,5.043834 -24.63072,12.021133 -4.62352,4.87571 -7.81794,10.59206 -9.16297,18.24187 z M 576.79813,85.07267 c -3.36256,-6.641049 -14.45899,-8.238263 -18.74625,-2.942237 4.37132,5.38009 12.02114,6.641048 18.74625,2.942237 z"
     class="st5" /><path
     style="stroke-width:8.40639"
     id="path26"
     d="m 432.54447,113.90659 c -2.10159,2.43785 -4.03506,5.21196 -6.38885,7.39762 -12.44146,11.76895 -26.98452,19.50283 -43.71323,23.11757 -6.55699,1.42909 -13.2821,2.26973 -20.00721,2.69005 -4.2032,0.25219 -8.57452,-0.50438 -12.77771,-1.34502 -3.95101,-0.75658 -7.31356,-2.85818 -9.07891,-6.3048 -5.88447,1.84941 -11.26456,3.95101 -16.81278,5.29603 -7.39762,1.93347 -14.96337,2.43785 -22.61319,0.67251 -7.06136,-1.68128 -12.1052,-5.29602 -13.36616,-12.94584 0,-0.25219 -0.25219,-0.42032 -0.67251,-0.9247 -11.85301,1.42908 -23.95821,1.51315 -36.23154,-1.00877 -3.53068,3.86694 -7.14543,7.73388 -10.67612,11.68488 -11.76894,13.02991 -23.62195,25.97575 -36.81999,37.66063 -11.09643,9.75141 -22.86538,18.66219 -36.3156,24.96698 -8.99484,4.2032 -18.41,6.89324 -28.32954,7.14543 -13.53429,0.25219 -25.47136,-4.11913 -36.73592,-12.60958 2.77411,-2.35379 5.38009,-4.53945 7.73388,-6.55699 3.78287,2.18566 7.14543,4.62352 10.84424,6.22073 10.08767,4.2032 20.17534,3.36256 30.01081,-1.00877 7.98607,-3.61474 14.87931,-8.65858 20.76379,-14.96337 15.46776,-16.47652 30.76739,-33.12118 46.06702,-49.76583 0.33625,-0.33626 0.58844,-0.75658 1.17689,-1.68128 -1.34502,0.33626 -2.26972,0.50439 -3.11036,0.75658 -14.12274,4.62351 -28.24547,9.16296 -42.87259,11.76894 -5.88448,1.00877 -11.93708,1.34503 -17.90562,1.84941 -1.93347,0.16813 -3.951,-0.25219 -5.8004,-0.58845 -5.88448,-1.09283 -7.90201,-3.44662 -8.23827,-9.58328 -4.11913,1.34502 -8.1542,2.69004 -12.18926,3.951 -9.83548,3.11036 -19.75502,5.88447 -30.094885,6.64105 -3.278492,0.25219 -6.641048,0.0841 -9.919541,-0.33626 -5.632281,-0.84064 -7.817943,-3.27849 -8.40639,-9.24703 -0.924703,0.33626 -1.765342,0.58845 -2.605981,0.92471 -11.096435,4.79164 -22.529126,8.32232 -34.718392,9.16296 -4.95977,0.33626 -9.835476,-0.16813 -14.543055,-1.8494 C 15.251255,140.47078 8.1898877,127.8612 10.459613,113.90659 12.477146,101.63326 17.9413,90.789015 25.338923,80.953538 49.717455,48.673 81.829866,28.161407 121.50803,19.670953 c 6.64105,-1.429086 13.61836,-1.93347 20.42753,-2.353789 8.65858,-0.588447 18.24187,0.924703 27.74109,5.968537 0.25219,-0.08406 0.58845,-0.08406 0.67251,-0.168128 3.19443,-4.035067 7.48169,-5.043834 12.44146,-4.707578 5.88447,0.336255 11.76894,0.08406 17.65342,0.08406 0.84064,0 1.76534,-0.08406 2.60598,0.08406 1.59721,0.252191 2.01753,1.176894 1.17689,2.60598 -0.50438,0.84064 -1.17689,1.597215 -1.76534,2.35379 -12.35739,14.458991 -24.71479,29.002046 -37.07218,43.461038 -13.2821,15.635885 -26.48013,31.355835 -39.67816,47.075787 -1.93347,2.35379 -3.61475,4.95977 -5.29603,7.48168 -0.50438,0.67251 -0.9247,1.42909 -1.26096,2.26973 -0.67251,1.68128 -1.76534,3.44662 -0.50438,5.21196 1.34502,1.76534 3.44662,1.1769 5.1279,0.9247 2.01753,-0.25219 4.11913,-0.75657 6.0526,-1.51315 7.39762,-3.0263 14.71118,-6.0526 22.02474,-9.33109 1.42909,-0.67251 2.69005,-2.1016 3.78288,-3.36256 12.69365,-15.21556 25.89168,-29.926743 40.01442,-43.797287 14.54305,-14.290864 29.92674,-27.741088 47.07578,-38.837523 8.07014,-5.211962 16.39246,-9.835477 25.63949,-12.69365 3.86694,-1.176894 7.90201,-1.933469 11.93708,-1.765342 5.54821,0.252192 7.73387,3.194429 6.0526,8.574518 -0.75658,2.437854 -1.84941,4.875707 -3.36256,6.893241 -4.11913,5.464153 -8.23826,11.012371 -13.11397,15.888077 -17.14903,17.317164 -36.65186,31.608028 -58.84473,41.77976 -3.44662,1.597214 -7.06137,2.942236 -10.59205,4.203195 -1.68128,0.588447 -2.94224,1.429086 -4.03507,2.942237 -5.1279,7.313554 -10.42392,14.627114 -15.63589,21.940674 -0.9247,1.26096 -1.76534,2.69005 -2.35378,4.11913 -0.92471,2.35379 -0.16813,3.61475 2.26972,4.45539 3.36256,1.09283 6.64105,0.25219 9.83548,-0.42032 10.84424,-2.1016 21.26816,-5.80041 31.69209,-9.58328 0.25219,-0.0841 0.33625,-0.33626 0.75657,-0.67252 -0.50438,-1.09283 -1.17689,-2.18566 -1.59721,-3.44662 -2.1016,-5.29602 0.9247,-9.58328 6.55698,-9.0789 2.26973,0.16813 4.45539,1.1769 6.64105,2.01754 1.26096,0.50438 2.35379,1.26096 3.69881,2.10159 0.92471,-1.00876 1.84941,-2.01753 2.77411,-3.0263 13.70242,-15.551816 27.82515,-30.851446 42.95666,-45.058246 13.45022,-12.609585 27.57296,-24.462596 43.71323,-33.625561 7.73388,-4.371323 15.80401,-7.902007 24.63072,-9.499221 2.35379,-0.42032 4.87571,-0.588447 7.31356,-0.336256 4.28726,0.504384 6.30479,3.362556 5.1279,7.565751 -0.67251,2.605981 -1.68128,5.211962 -3.19443,7.31356 -3.78288,5.211962 -7.64982,10.592052 -12.18927,15.215566 -15.80401,16.392461 -33.70962,30.010814 -54.05309,40.434738 -4.53945,2.353789 -9.49922,3.951003 -14.2068,6.052601 -1.17689,0.504383 -2.52191,1.176894 -3.27849,2.101597 -5.96853,7.313561 -11.85301,14.711181 -17.73748,22.108801 -0.25219,0.2522 -0.33626,0.67251 -0.58845,1.26096 9.24703,3.0263 18.74625,3.36256 28.4136,3.86694 0.42032,-0.84064 0.75658,-1.59721 1.00877,-2.35379 3.86694,-10.67611 11.09643,-18.74625 19.67095,-25.72355 11.34863,-9.162965 24.29447,-14.711183 38.75346,-16.476525 4.87571,-0.588447 9.83548,-0.504383 14.62712,0.588448 4.79164,1.09283 8.99484,3.278492 12.1052,7.902006 4.11913,-4.371323 9.41516,-4.455386 14.79525,-4.287259 3.44662,0.08406 6.89324,-0.08406 10.33986,0.08406 1.17689,0.08406 2.43785,0.588448 4.28726,1.008767 -1.84941,2.437853 -3.11037,4.287259 -4.53945,6.136665 -7.39763,9.162968 -14.87931,18.325928 -22.27694,27.488898 -1.8494,2.26973 -3.36255,4.87571 -4.8757,7.31356 -0.58845,1.00877 -1.00877,2.26973 -1.34503,3.44662 -1.09283,4.37132 0.58845,6.80918 5.04384,6.80918 2.94223,0 5.88447,-0.33626 8.74264,-1.00877 10.67612,-2.77411 20.5116,-7.56575 29.08611,-14.62712 2.26973,-1.84941 4.2032,-4.11913 6.13667,-6.30479 1.00877,-1.26096 2.01753,-1.93347 3.69881,-1.84941 2.94224,0.0841 5.80041,0 8.74265,0 0.25219,0.33626 0.42032,0.67251 0.58844,1.00877 M 142.01963,26.227938 c 0,0.168127 -0.0841,0.336255 -0.0841,0.504383 -1.09283,0 -2.18566,-0.08406 -3.27849,0 -0.75658,0 -1.42909,0.252192 -2.18566,0.336256 -10.33986,1.51315 -19.83908,5.380089 -29.00205,10.171732 C 90.572482,46.235147 76.029427,58.256285 62.999522,72.126829 55.938154,79.69258 49.38117,87.678651 45.09391,97.177872 c -1.765341,3.698808 -3.110364,7.733878 -3.782875,11.853008 -1.008767,5.88448 0.840639,11.01237 6.052601,14.37493 4.875706,3.11036 10.423924,4.62351 16.140269,3.951 13.534289,-1.59721 24.966979,-8.07013 33.877753,-17.73748 17.485292,-19.082507 34.129952,-39.005652 51.110862,-58.592541 2.94223,-3.44662 5.54821,-7.145432 7.14543,-11.516755 1.76534,-5.043834 0,-9.415157 -5.04384,-11.264563 -2.77411,-1.09283 -5.71634,-1.429086 -8.57451,-2.017533 z M 355.37381,88.09897 c -1.93347,0.336256 -3.86694,0.588447 -5.71634,1.176895 -12.69365,3.951003 -22.52913,11.853015 -29.84269,22.781315 -2.01753,3.0263 -3.53068,6.47292 -4.45539,10.00361 -2.01753,8.07013 3.36256,12.1052 10.50799,11.1805 3.61475,-0.42032 7.14543,-1.68128 10.50799,-3.0263 3.53068,-1.42909 7.06137,-2.94224 9.49922,-6.05261 5.96854,-7.48168 11.93707,-14.96337 17.82155,-22.52912 1.00876,-1.26096 1.59721,-3.110366 1.59721,-4.70758 0.25219,-5.548218 -3.69881,-8.910774 -9.91954,-8.82671 z m -68.25989,-5.296026 c 0.16813,0.252192 0.25219,0.504384 0.42032,0.756575 3.86694,-0.672511 7.39762,-2.353789 10.84424,-4.119131 15.88808,-8.070135 29.17018,-19.334698 40.771,-32.700858 2.18566,-2.521917 3.86694,-5.632282 5.46415,-8.658582 0.75658,-1.345022 1.09283,-3.026301 1.26096,-4.539451 0.25219,-2.942236 -1.26096,-4.035067 -4.11913,-3.0263 -0.9247,0.336255 -1.76534,0.840639 -2.60598,1.429086 -2.43786,1.681278 -4.87571,3.278492 -7.2295,5.043834 -12.27333,9.499221 -23.03351,20.595656 -33.2893,32.196475 -3.78288,4.455387 -7.56575,9.078901 -11.51676,13.618352 z m -78.51568,0.08406 c 0.16812,0.252192 0.33625,0.588447 0.42032,0.840639 1.93347,-0.672511 3.951,-1.176894 5.80041,-2.017534 18.74625,-8.154198 33.96181,-20.931911 46.99172,-36.399669 2.26972,-2.774109 3.69881,-6.304793 5.21196,-9.667349 0.75657,-1.597214 1.17689,-3.782876 -0.58845,-5.127898 -1.59721,-1.176895 -3.36255,-0.252192 -4.79164,0.672511 -2.85817,1.849406 -5.71635,3.782876 -8.49046,5.884473 -12.35739,9.583285 -23.11757,20.847848 -33.45743,32.616794 -3.69881,4.371323 -7.39762,8.82671 -11.09643,13.198033 z"
     class="st5" /></g><rect
   y="957.55151"
   x="0"
   height="7.540525"
   width="2000"
   id="rect52"
   style="fill:#000000;stroke-width:9.00348;stroke-linecap:round;stroke-linejoin:round;stroke-dashoffset:131.528" /></svg>
